# xmcd
#
# Track frame offsets: 
#        150
#        35115
#        75885
#        108230
#        139415
#        167195
#        205589
#        231850
#
# Disc length: 3551 seconds
#
# Revision: 1
# Processed by: cddbd v1.5.2PL0 Copyright (c) Steve Scherf et al.
# Submitted via: ExactAudioCopy v0.95b4
#
DISCID=630ddd08
DTITLE=Rahul Sharma - Zen
DYEAR=2006
DGENRE=New Age
TTITLE0=Gibberish (The Cleansing)
TTITLE1=Energy Within
TTITLE2=Let-Go
TTITLE3=Bokushu (The Master)
TTITLE4=No-Mind
TTITLE5=Haiku (The Poem)
TTITLE6=Psychadelia
TTITLE7=Back To Life
EXTD=
EXTT0=
EXTT1=
EXTT2=
EXTT3=
EXTT4=
EXTT5=
EXTT6=
EXTT7=
PLAYORDER=
